<?xml version="1.0" encoding="utf-8"?>
<!-- Generator: Adobe Illustrator 25.4.1, SVG Export Plug-In . SVG Version: 6.00 Build 0)  -->
<svg version="1.1" id="CTA" xmlns="http://www.w3.org/2000/svg" xmlns:xlink="http://www.w3.org/1999/xlink" x="0px" y="0px"
	 viewBox="0 0 170.6 47.1" style="enable-background:new 0 0 170.6 47.1;" xml:space="preserve">
<style type="text/css">
	.st0{fill-rule:evenodd;clip-rule:evenodd;stroke:#000000;}
	.st1{enable-background:new    ;}
	.st2{fill:#FFFFFF;}
</style>
<path id="Frame" class="st0" d="M2.5,0.5h165.6c1.1,0,2,0.9,2,2v42.1c0,1.1-0.9,2-2,2H2.5c-1.1,0-2-0.9-2-2V2.5
	C0.5,1.4,1.4,0.5,2.5,0.5z"/>
<g class="st1">
	<path class="st2" d="M38.4,28.2v-2.6h0c0.5,0.6,1.2,1.1,2.1,1.1c0.6,0,1.2-0.3,1.2-1.1v-5.2c0-0.7-0.1-1.4-0.1-2.1H44
		c0,0.7-0.1,1.5-0.1,2.1v5.3c0,2.1-1.5,2.9-3.4,2.9C39.8,28.7,39.1,28.5,38.4,28.2z"/>
	<path class="st2" d="M47,18.2c0.6,0,1.1,0.5,1.1,1.2c0,0.4-0.4,1.2-0.5,1.6l-0.7,1.7h-1.1l0.1-3.2C45.8,18.6,46.3,18.2,47,18.2z"/>
	<path class="st2" d="M49.5,26.4v-6c0-0.9,0-1.7-0.1-2.1h6.9l0.1,2c-0.6,0-1.3-0.1-2-0.1h-2.8c0,0.1,0,0.2,0,0.3v1.9h2.1
		c0.7,0,1.3,0,2-0.1v2.1c-0.6-0.1-1.3-0.1-2-0.1h-2.2v1.9c0,0.1,0,0.2,0,0.3h2.8c0.6,0,1.3,0,2-0.1l-0.1,2h-7
		C49.5,28.1,49.5,27.2,49.5,26.4z"/>
	<path class="st2" d="M58.3,26.4v-7c0-0.2-0.1-0.6-0.4-1.1h2.3l5.3,6.6h0v-4.5c0-0.7-0.1-1.4-0.1-2.1h2.1c0,0.7-0.1,1.5-0.1,2.1v6
		c0,0.7,0,1.4,0.1,2.1h-1.9l-5.3-6.8h0v4.6c0,1,0.1,1.8,0.1,2.1h-2.1C58.2,27.8,58.3,27.1,58.3,26.4z"/>
	<path class="st2" d="M73.1,26.4v-6c0-0.7,0-1.4-0.1-2.1h3.2c2,0,3.9,1.1,3.9,3.2c0,2.1-1.8,3.4-3.8,3.4c-0.2,0-0.8,0-1,0v1.5
		c0,0.7,0,1.4,0.1,2.1H73C73,27.8,73.1,27.1,73.1,26.4z M77.9,21.5c0-1-0.8-1.3-1.6-1.3h-1.1v2.6c0.2,0,0.7,0.1,0.9,0.1
		C77.3,23,77.9,22.4,77.9,21.5z"/>
	<path class="st2" d="M81.5,26.7v-6.5c0-0.6-0.1-1.2-0.1-1.9H85c2.1,0,3.4,1.5,3.4,3.2c0,1.3-0.9,2.4-2,2.8v0
		c0.4,0.1,0.7,0.4,0.9,0.8l0.9,1.5c0.5,0.7,0.8,1.2,1.4,1.9v0h-2.8c-0.2-0.4-0.5-1.1-1-1.9l-0.7-1.2c-0.3-0.5-0.7-0.7-1.4-0.7h0v1.9
		c0,0.6,0.1,1.2,0.1,1.9h-2.3C81.4,27.9,81.5,27.3,81.5,26.7z M86.1,21.5c0-0.7-0.5-1.2-1.5-1.2h-1v2.6c0.4,0.1,0.6,0.1,1,0.1
		C85.7,22.9,86.1,22.3,86.1,21.5z"/>
	<path class="st2" d="M89.8,23.4c0-3,2.3-5.3,5.3-5.3c3,0,5.3,2.3,5.3,5.3c0,3-2.3,5.3-5.3,5.3C92.1,28.7,89.8,26.5,89.8,23.4z
		 M98.2,23.4c0-1.9-1.4-3.3-3.1-3.3S92,21.6,92,23.4s1.4,3.3,3.1,3.3S98.2,25.3,98.2,23.4z"/>
	<path class="st2" d="M102,26.4v-6c0-0.9,0-1.7-0.1-2.1h7.1l0.1,2c-0.6,0-1.3-0.1-1.9-0.1h-2.9c0,0.1,0,0.2,0,0.3v2h2.3
		c0.6,0,1.3-0.1,2-0.1v2.1c-0.7,0-1.3-0.1-2-0.1h-2.3v1.9c0,0.8,0,1.7,0.1,2.1h-2.3C102,28.1,102,27.2,102,26.4z"/>
	<path class="st2" d="M110.6,26.4v-6c0-0.9,0-1.7-0.1-2.1h2.3c0,0.4-0.1,1.3-0.1,2.1v6c0,0.8,0,1.7,0.1,2.1h-2.3
		C110.6,28.1,110.6,27.2,110.6,26.4z"/>
	<path class="st2" d="M117.2,26.5v-6.2h-1.1c-0.7,0-1.3,0-2,0.1v-2h8.4v2c-0.7,0-1.4-0.1-2-0.1h-1.1v6.2c0,0.8,0.1,1.6,0.1,2.1h-2.3
		C117.2,28.1,117.2,27.3,117.2,26.5z"/>
	<path class="st2" d="M123.8,26.4v-6c0-0.9,0-1.7-0.1-2.1h6.9l0.1,2c-0.6,0-1.3-0.1-2-0.1h-2.8c0,0.1,0,0.2,0,0.3v1.9h2.1
		c0.7,0,1.3,0,2-0.1v2.1c-0.6-0.1-1.3-0.1-2-0.1h-2.2v1.9c0,0.1,0,0.2,0,0.3h2.8c0.6,0,1.3,0,2-0.1l-0.1,2h-7
		C123.7,28.1,123.8,27.2,123.8,26.4z"/>
</g>
</svg>
