<?xml version="1.0" encoding="utf-8"?>
<!-- Generator: Adobe Illustrator 25.4.1, SVG Export Plug-In . SVG Version: 6.00 Build 0)  -->
<svg version="1.1" id="Calque_1" xmlns="http://www.w3.org/2000/svg" xmlns:xlink="http://www.w3.org/1999/xlink" x="0px" y="0px"
	 viewBox="0 0 104.7 14.7" style="enable-background:new 0 0 104.7 14.7;" xml:space="preserve">
<style type="text/css">
	.st0{enable-background:new    ;}
</style>
<g class="st0">
	<path d="M4.2,3.4C3.9,3.3,3.5,3.2,3.3,3.2l0.2-0.6c0.2,0.1,0.5,0.2,0.9,0.4c0-0.3,0-0.7-0.1-0.9H5c0,0.2,0,0.6,0,0.9
		c0.3-0.1,0.7-0.3,0.9-0.4L6,3.2c-0.2,0-0.6,0.1-0.9,0.2C5.3,3.7,5.6,4,5.7,4.1L5.2,4.5C5,4.3,4.9,4,4.7,3.7C4.5,4,4.3,4.3,4.2,4.5
		L3.6,4.1C3.8,3.9,4,3.7,4.2,3.4z"/>
	<path d="M10.2,12L6.9,3.5C6.8,3.2,6.7,2.9,6.6,2.8h1.5c0,0.2,0.1,0.4,0.2,0.7l2.7,7.4h0l2.7-7.4c0.1-0.3,0.2-0.6,0.2-0.7h1.5
		c-0.1,0.2-0.2,0.4-0.4,0.7L11.9,12c-0.1,0.3-0.2,0.5-0.2,0.6h-1.3C10.4,12.5,10.3,12.2,10.2,12z"/>
	<path d="M15.3,9.1c0-2,1.6-3.6,3.6-3.6c2.1,0,3.6,1.6,3.6,3.6c0,2.1-1.6,3.6-3.6,3.6C16.8,12.7,15.3,11.1,15.3,9.1z M21.2,9.1
		c0-1.4-1-2.5-2.3-2.5c-1.3,0-2.3,1.1-2.3,2.5c0,1.4,1,2.5,2.3,2.5C20.2,11.6,21.2,10.5,21.2,9.1z"/>
	<path d="M24.1,3.7c0-0.4,0.3-0.8,0.7-0.8c0.4,0,0.7,0.3,0.7,0.8c0,0.4-0.3,0.7-0.7,0.7C24.4,4.4,24.1,4.1,24.1,3.7z M24.2,10.9V7.3
		c0-0.7,0-1.3-0.1-1.7h1.4c0,0.4-0.1,1-0.1,1.7v3.7c0,0.6,0,1.3,0.1,1.7h-1.4C24.1,12.2,24.2,11.6,24.2,10.9z"/>
	<path d="M27.5,10.9V7.3c0-0.7,0-1.3-0.1-1.7h1.1l0.1,0.8h0c0.4-0.6,1-0.9,1.8-0.9c0.4,0,0.8,0.1,1,0.2v1.5h0
		c-0.2-0.3-0.6-0.5-1.2-0.5c-0.9,0-1.5,0.7-1.5,1.8v2.5c0,0.6,0,1.3,0.1,1.7h-1.4C27.5,12.2,27.5,11.6,27.5,10.9z"/>
	<path d="M35.4,9.1c0-2,1.5-3.6,3.7-3.6c0.8,0,1.6,0.3,2.1,0.7v1.4h0c-0.5-0.6-1.2-1-2.1-1c-1.4,0-2.4,1.1-2.4,2.5
		c0,1.4,0.9,2.5,2.4,2.5c0.9,0,1.6-0.3,2.1-1h0V12c-0.4,0.4-1.3,0.7-2.1,0.7C36.9,12.7,35.4,11.2,35.4,9.1z"/>
	<path d="M42.4,9.1c0-2,1.6-3.6,3.6-3.6c2.1,0,3.6,1.6,3.6,3.6c0,2.1-1.6,3.6-3.6,3.6C44,12.7,42.4,11.1,42.4,9.1z M48.4,9.1
		c0-1.4-1-2.5-2.3-2.5c-1.3,0-2.3,1.1-2.3,2.5c0,1.4,1,2.5,2.3,2.5C47.4,11.6,48.4,10.5,48.4,9.1z"/>
	<path d="M51.3,10.9V7.3c0-0.7,0-1.3-0.1-1.7h1.1l0.1,0.8h0c0.4-0.6,1.3-0.9,2-0.9c1.7,0,2.8,1.1,2.8,2.5v2.9c0,0.6,0,1.3,0.1,1.7
		h-1.4c0-0.4,0.1-1,0.1-1.7V8.4c0-1.2-0.8-1.8-1.7-1.8s-1.7,0.6-1.7,1.7v2.7c0,0.6,0,1.3,0.1,1.7h-1.4
		C51.2,12.2,51.3,11.6,51.3,10.9z"/>
	<path d="M58.8,9.1c0-2,1.4-3.6,3.5-3.6c1,0,1.8,0.4,2.2,1h0V3.7c0-0.7,0-1.3-0.1-1.7h1.4c0,0.4-0.1,1-0.1,1.7v6.9
		c0,0.9,0,1.5,0.1,1.9h-1.1c-0.1-0.3-0.2-0.6-0.3-1h0c-0.5,0.7-1.3,1.1-2.3,1.1C60.1,12.7,58.8,11.1,58.8,9.1z M64.5,9.1
		c0-1.4-0.9-2.5-2.2-2.5c-1.3,0-2.2,1.1-2.2,2.5c0,1.4,0.9,2.5,2.2,2.5C63.6,11.6,64.5,10.6,64.5,9.1z"/>
	<path d="M67.7,3.7c0-0.4,0.3-0.8,0.7-0.8s0.7,0.3,0.7,0.8c0,0.4-0.3,0.7-0.7,0.7S67.7,4.1,67.7,3.7z M67.8,10.9V7.3
		c0-0.7,0-1.3-0.1-1.7h1.4c0,0.4-0.1,1-0.1,1.7v3.7c0,0.6,0,1.3,0.1,1.7h-1.4C67.8,12.2,67.8,11.6,67.8,10.9z"/>
	<path d="M71.8,10.6v-4h-0.1c-0.5,0-0.9,0-1.2,0V5.6c0.3,0,0.7,0,1.2,0h0.1V4.9c0-0.6,0-1.3-0.1-1.7h1.4c0,0.4-0.1,1-0.1,1.7v0.7
		h0.8c0.7,0,1.3,0,1.7,0v1.2c-0.4,0-1-0.1-1.7-0.1H73v3.8c0,0.8,0.4,1.1,1.1,1.1c0.5,0,1.1-0.3,1.4-0.6h0v1.3
		c-0.3,0.2-0.9,0.4-1.7,0.4C72.7,12.7,71.8,12.1,71.8,10.6z"/>
	<path d="M76.8,3.7c0-0.4,0.3-0.8,0.7-0.8c0.4,0,0.7,0.3,0.7,0.8c0,0.4-0.3,0.7-0.7,0.7C77.2,4.4,76.8,4.1,76.8,3.7z M76.9,10.9V7.3
		c0-0.7,0-1.3-0.1-1.7h1.4c0,0.4-0.1,1-0.1,1.7v3.7c0,0.6,0,1.3,0.1,1.7h-1.4C76.9,12.2,76.9,11.6,76.9,10.9z"/>
	<path d="M79.9,9.1c0-2,1.6-3.6,3.6-3.6c2.1,0,3.6,1.6,3.6,3.6c0,2.1-1.6,3.6-3.6,3.6C81.4,12.7,79.9,11.1,79.9,9.1z M85.8,9.1
		c0-1.4-1-2.5-2.3-2.5c-1.3,0-2.3,1.1-2.3,2.5c0,1.4,1,2.5,2.3,2.5C84.8,11.6,85.8,10.5,85.8,9.1z"/>
	<path d="M88.8,10.9V7.3c0-0.7,0-1.3-0.1-1.7h1.1l0.1,0.8h0c0.4-0.6,1.3-0.9,2-0.9c1.7,0,2.8,1.1,2.8,2.5v2.9c0,0.6,0,1.3,0.1,1.7
		h-1.4c0-0.4,0.1-1,0.1-1.7V8.4c0-1.2-0.8-1.8-1.7-1.8s-1.7,0.6-1.7,1.7v2.7c0,0.6,0,1.3,0.1,1.7h-1.4
		C88.7,12.2,88.8,11.6,88.8,10.9z"/>
	<path d="M96.4,12.1v-1.5h0c0.6,0.5,1.5,1,2.4,1c0.8,0,1.3-0.4,1.3-1c0-0.5-0.3-0.8-0.9-1L98,9.3c-0.9-0.3-1.6-0.8-1.6-1.8
		c0-1.4,1.2-2,2.5-2c0.8,0,1.6,0.3,2,0.5v1.4h0c-0.5-0.5-1.3-0.9-2-0.9c-0.8,0-1.3,0.4-1.3,0.9c0,0.5,0.5,0.7,1,0.9l1.1,0.4
		c1.1,0.4,1.6,0.9,1.6,1.9c0,1.2-1,2.1-2.6,2.1C97.9,12.7,97,12.4,96.4,12.1z"/>
</g>
</svg>
