<?xml version="1.0" encoding="utf-8"?>
<!-- Generator: Adobe Illustrator 25.4.1, SVG Export Plug-In . SVG Version: 6.00 Build 0)  -->
<svg version="1.1" id="Calque_1" xmlns="http://www.w3.org/2000/svg" xmlns:xlink="http://www.w3.org/1999/xlink" x="0px" y="0px"
	 viewBox="0 0 148.6 123" style="enable-background:new 0 0 148.6 123;" xml:space="preserve">
<style type="text/css">
	.st0{enable-background:new    ;}
</style>
<g class="st0">
	<path d="M6.1,35.2v-4.5h0.1c1.4,2,2.9,3.7,5.1,3.7c2,0,3.3-1.5,3.3-4V17.3c0-1.3-0.1-2.6-0.1-4H18c-0.1,1.3-0.2,2.7-0.2,4V31
		c0,4.2-2.6,6.2-6.4,6.2C9.5,37.2,7.6,36.6,6.1,35.2z"/>
	<path d="M23.3,27.3v-9.9c0-1.6-0.1-3.1-0.2-4h3.5c-0.1,0.9-0.1,2.4-0.1,4v9.9c0,4.6,1.8,7.1,6,7.1c4.2,0,6.2-2.7,6.2-7.1v-9.9
		c0-1.6-0.1-3.1-0.1-4h3.5c-0.1,0.9-0.1,2.4-0.1,4v9.9c0,6.2-3.3,9.8-9.4,9.8S23.3,33.6,23.3,27.3z"/>
	<path d="M46.7,35.1v-4.2h0c1.9,2.2,4.5,3.4,6.9,3.4c2.9,0,4.6-1.5,4.6-4c0-1.8-1-2.9-3.5-3.9l-3.4-1.3c-3-1.1-4.7-2.8-4.7-5.9
		c0-3.6,3.2-6.3,7.6-6.3c2.6,0,5,0.8,6.3,1.9v4.2h0c-1.3-1.6-3.5-3.3-6.2-3.3c-2.6,0-4.3,1.4-4.3,3.3c0,1.8,1.1,2.7,3.3,3.5l3.4,1.3
		c3.4,1.3,5,3.2,5,6.3c0,4.2-3.1,6.9-7.9,6.9C51,37.1,48.4,36.4,46.7,35.1z"/>
	<path d="M82.7,39.7c-1.5-0.6-3.7-1.8-5.1-2.6c-0.2,0-0.5,0-0.8,0c-6.8,0-12.1-5.2-12.1-12.1C64.7,18.3,70,13,76.8,13
		c6.8,0,12.1,5.2,12.1,12.1c0,5.2-3.1,9.5-7.6,11.2v0c1.4,0.6,2.7,1.1,3.4,1.3c1.5,0.4,3.4,0.8,4.5,0.9l-1.8,2.7
		C86.1,40.9,84.7,40.5,82.7,39.7z M85.6,25.1c0-5.2-3.9-9.3-8.8-9.3c-4.9,0-8.8,4.1-8.8,9.3c0,5.2,3.9,9.3,8.8,9.3
		C81.8,34.3,85.6,30.3,85.6,25.1z"/>
	<path d="M93.2,27.3v-9.9c0-1.6-0.1-3.1-0.2-4h3.5c-0.1,0.9-0.1,2.4-0.1,4v9.9c0,4.6,1.8,7.1,6,7.1c4.2,0,6.2-2.7,6.2-7.1v-9.9
		c0-1.6-0.1-3.1-0.1-4h3.5c-0.1,0.9-0.1,2.4-0.1,4v9.9c0,6.2-3.3,9.8-9.4,9.8S93.2,33.6,93.2,27.3z"/>
	<path d="M118.9,13.2c1,0,1.7,0.7,1.6,1.7c0,0.5-0.4,1.6-1.1,3.1l-1.5,3.5h-1.3l0.2-6.3C117,13.8,117.7,13.2,118.9,13.2z"/>
	<path d="M120.8,35.1l8.3-20.2c0.3-0.7,0.5-1.2,0.6-1.6h2.7c0.1,0.4,0.3,1,0.6,1.6l8.8,20.2l0.9,1.7v0H139c-0.2-0.4-0.3-0.9-0.7-1.8
		l-1.9-4.5h-10.6l-1.8,4.5c-0.4,0.9-0.5,1.5-0.6,1.8h-3.5v0C120.1,36.4,120.4,36,120.8,35.1z M130.1,6.7l2.9,3.8h-3l-4.4-3.8H130.1z
		 M130.9,17.8l-4,10h8.3L130.9,17.8z"/>
</g>
<g class="st0">
	<path d="M13.6,80.3h3.7c2.4,0,4.9,0,6.2-0.1v6.1c-1.3-0.1-3.8-0.2-6.2-0.2h-3.7c-2.4,0-4.9,0.1-6.2,0.2v-6.1
		C8.7,80.3,11.2,80.3,13.6,80.3z"/>
	<path d="M27.3,91l5.3-5.4c1.6,2.3,3.9,4,6.7,4c3.7,0,5.9-2.4,5.9-5.5c0-2.9-2.1-5.2-5.8-5.2c-3.4,0-6.4,1.2-8.2,2h-0.1V61.4h11
		c2.5,0,5-0.1,7.4-0.2v7.1C47,68.2,44.5,68,42,68h-4v4.8c0.6-0.1,1.3-0.2,2.1-0.2c7.4,0,12.1,5,12.1,11.5S47,96.2,39.4,96.2
		C33.9,96.2,29.5,93.7,27.3,91z"/>
	<path d="M56.4,78.6c0-10.1,7-17.6,16.4-17.6c9.5,0,16.3,7.5,16.3,17.6c0,10.1-6.8,17.6-16.3,17.6C63.4,96.2,56.4,88.7,56.4,78.6z
		 M81.9,78.6c0-5.7-3-11-9-11c-5.9,0-9.1,5.3-9.1,11c0,5.7,3.1,11.1,9.1,11.1C78.8,89.6,81.9,84.3,81.9,78.6z"/>
	<path d="M92.7,68.9c0-4.7,3.2-7.9,7.4-7.9c4.3,0,7.4,3.1,7.4,7.9c0,4.8-3,8-7.4,8C95.9,76.9,92.7,73.7,92.7,68.9z M126.6,61.4
		l-24.2,34.4h-6l24.2-34.4H126.6z M102.3,68.9c0-2.1-0.7-3.2-2.2-3.2c-1.4,0-2.2,1.2-2.2,3.2s0.8,3.3,2.2,3.3
		C101.6,72.2,102.3,71,102.3,68.9z M115.6,88.1c0-4.7,3.2-7.9,7.4-7.9c4.3,0,7.4,3.1,7.4,7.9s-3,8-7.4,8
		C118.8,96,115.6,92.8,115.6,88.1z M125.2,88.1c0-2.1-0.7-3.2-2.2-3.2c-1.4,0-2.2,1.2-2.2,3.2c0,2.1,0.8,3.3,2.2,3.3
		C124.4,91.3,125.2,90.2,125.2,88.1z"/>
</g>
<g class="st0">
	<path d="M135.4,68.1c-0.8-0.3-2.1-0.7-2.8-0.8l1-2.8c0.7,0.3,1.9,0.8,2.7,1.2c0-0.8,0-2.1-0.1-3.1h2.8c0,1-0.1,2.3-0.1,3.1
		c0.7-0.3,2.1-0.9,2.7-1.2l1,2.8c-0.7,0.2-1.9,0.5-2.8,0.8c0.3,0.5,1.2,1.6,1.8,2.4l-2.5,1.7c-1-1.8-1.2-2.1-1.5-2.6
		c-0.4,0.6-1.1,1.7-1.5,2.6l-2.5-1.7C135,68.8,135.1,68.6,135.4,68.1z"/>
</g>
<g class="st0">
	<path d="M6.1,115.2V113h0c1,1.2,2.4,1.8,3.7,1.8c1.5,0,2.4-0.8,2.4-2.1c0-1-0.5-1.5-1.9-2L8.5,110C7,109.4,6,108.6,6,106.9
		c0-1.9,1.7-3.3,4-3.3c1.4,0,2.6,0.4,3.3,1v2.2h0c-0.7-0.9-1.8-1.7-3.3-1.7c-1.4,0-2.3,0.7-2.3,1.7c0,0.9,0.6,1.4,1.7,1.8l1.8,0.7
		c1.8,0.7,2.6,1.7,2.6,3.4c0,2.2-1.6,3.7-4.2,3.7C8.4,116.3,7,115.9,6.1,115.2z"/>
	<path d="M16,113v-3.6c0-0.8-0.1-1.6-0.1-2.1h1.8c0,0.5-0.1,1.3-0.1,2.1v3.2c0,1.5,0.6,2.3,1.9,2.3c1.3,0,2.1-0.7,2.1-2.2v-3.3
		c0-0.8,0-1.6-0.1-2.1h1.8c0,0.5-0.1,1.3-0.1,2.1v4.6c0,0.9,0,1.7,0.1,2.1h-1.5l-0.1-1h0c-0.3,0.6-1.3,1.2-2.3,1.2
		C17.3,116.3,16,115.2,16,113z"/>
	<path d="M25.9,114.1v-4.6c0-0.9-0.1-1.7-0.1-2.1h1.5l0.1,1h0c0.5-0.7,1.3-1.2,2.3-1.2c0.6,0,1,0.1,1.3,0.3v1.8h0
		c-0.3-0.3-0.7-0.7-1.5-0.7c-1.1,0-1.9,0.9-1.9,2.3v3.1c0,0.8,0,1.6,0.1,2.1h-1.8C25.9,115.7,25.9,114.9,25.9,114.1z"/>
	<path d="M36.4,113v-3.6c0-0.8-0.1-1.6-0.1-2.1h1.8c0,0.5-0.1,1.3-0.1,2.1v3.2c0,1.5,0.6,2.3,1.9,2.3c1.3,0,2.1-0.7,2.1-2.2v-3.3
		c0-0.8,0-1.6-0.1-2.1h1.8c0,0.5-0.1,1.3-0.1,2.1v4.6c0,0.9,0,1.7,0.1,2.1h-1.5l-0.1-1h0c-0.3,0.6-1.3,1.2-2.3,1.2
		C37.7,116.3,36.4,115.2,36.4,113z"/>
	<path d="M46.4,114.1v-4.6c0-0.9-0.1-1.7-0.1-2.1h1.5l0.1,1h0c0.5-0.8,1.6-1.2,2.5-1.2c2.1,0,3.5,1.4,3.5,3.2v3.7
		c0,0.8,0,1.6,0.1,2.1h-1.8c0-0.5,0.1-1.3,0.1-2.1v-3.2c0-1.6-1-2.3-2.1-2.3s-2.1,0.8-2.1,2.1v3.4c0,0.8,0,1.6,0.1,2.1h-1.8
		C46.3,115.7,46.4,114.9,46.4,114.1z"/>
	<path d="M55.9,111.7c0-2.6,1.8-4.6,4.3-4.6c2.3,0,4.2,1.7,4.2,4.6c0,0.2,0,0.5-0.1,0.6h-6.8c0.2,1.5,1.3,2.5,2.9,2.5
		c1.1,0,2-0.5,2.5-1.2l1,1.2c-1,0.9-2.2,1.5-3.6,1.5C57.7,116.3,55.9,114.5,55.9,111.7z M60.2,108.5c-1.5,0-2.5,1-2.7,2.5h5.3
		C62.6,109.4,61.5,108.5,60.2,108.5z"/>
	<path d="M70.3,115.6v-1.9h0c0.7,0.7,1.9,1.3,3,1.3c1,0,1.6-0.5,1.6-1.2c0-0.6-0.4-1-1.2-1.2l-1.5-0.5c-1.1-0.4-2-1-2-2.3
		c0-1.8,1.6-2.6,3.2-2.6c1,0,2,0.3,2.6,0.7v1.8h0c-0.7-0.7-1.6-1.1-2.5-1.1c-1,0-1.7,0.5-1.7,1.1c0,0.7,0.7,0.9,1.3,1.1l1.4,0.5
		c1.4,0.5,2.1,1.2,2.1,2.5c0,1.6-1.3,2.6-3.3,2.6C72.2,116.3,71,116,70.3,115.6z"/>
	<path d="M78.1,111.7c0-2.6,1.8-4.6,4.3-4.6c2.3,0,4.2,1.7,4.2,4.6c0,0.2,0,0.5-0.1,0.6h-6.8c0.2,1.5,1.3,2.5,2.9,2.5
		c1.1,0,2-0.5,2.5-1.2l1,1.2c-1,0.9-2.2,1.5-3.6,1.5C80,116.3,78.1,114.5,78.1,111.7z M82.4,108.5c-1.5,0-2.5,1-2.7,2.5H85
		C84.8,109.4,83.7,108.5,82.4,108.5z M85.4,103.7l-2.3,2h-1.6l1.5-2H85.4z"/>
	<path d="M88.7,114.1V105c0-0.9,0-1.7-0.1-2.1h1.8c0,0.5-0.1,1.2-0.1,2.1v9.1c0,0.8,0,1.6,0.1,2.1h-1.8
		C88.6,115.7,88.7,114.9,88.7,114.1z"/>
	<path d="M92.4,111.7c0-2.6,1.8-4.6,4.3-4.6c2.3,0,4.2,1.7,4.2,4.6c0,0.2,0,0.5-0.1,0.6H94c0.2,1.5,1.3,2.5,2.9,2.5
		c1.1,0,2-0.5,2.5-1.2l1,1.2c-1,0.9-2.2,1.5-3.6,1.5C94.3,116.3,92.4,114.5,92.4,111.7z M96.7,108.5c-1.5,0-2.5,1-2.7,2.5h5.3
		C99.1,109.4,98,108.5,96.7,108.5z"/>
	<path d="M102.4,111.7c0-2.6,1.9-4.6,4.6-4.6c1.1,0,2.1,0.4,2.7,0.9v1.8h0c-0.6-0.7-1.5-1.2-2.6-1.2c-1.8,0-3,1.4-3,3.2
		c0,1.8,1.2,3.2,3,3.2c1.1,0,2.1-0.4,2.6-1.2h0v1.8c-0.6,0.6-1.6,0.9-2.7,0.9C104.2,116.3,102.4,114.4,102.4,111.7z"/>
	<path d="M112.5,113.7v-5h-0.1c-0.6,0-1.1,0-1.5,0.1v-1.5c0.3,0,0.9,0.1,1.5,0.1h0.1v-0.9c0-0.8,0-1.6-0.1-2.1h1.8
		c0,0.5-0.1,1.3-0.1,2.1v0.9h1c0.8,0,1.7,0,2.1-0.1v1.5c-0.5,0-1.3-0.1-2.1-0.1h-1v4.8c0,1,0.5,1.5,1.4,1.5c0.7,0,1.3-0.4,1.8-0.8h0
		v1.7c-0.4,0.2-1.2,0.5-2.1,0.5C113.7,116.3,112.5,115.5,112.5,113.7z"/>
	<path d="M119,104.8c0-0.6,0.4-1,0.9-1c0.6,0,0.9,0.4,0.9,1c0,0.5-0.4,0.9-0.9,0.9C119.4,105.8,119,105.4,119,104.8z M119.1,114.1
		v-4.6c0-0.9-0.1-1.7-0.1-2.1h1.8c0,0.5-0.1,1.2-0.1,2.1v4.6c0,0.8,0,1.6,0.1,2.1H119C119.1,115.7,119.1,114.9,119.1,114.1z"/>
	<path d="M122.8,111.7c0-2.6,2-4.6,4.6-4.6c2.6,0,4.6,2,4.6,4.6s-2,4.6-4.6,4.6C124.8,116.3,122.8,114.3,122.8,111.7z M130.4,111.7
		c0-1.8-1.3-3.2-3-3.2c-1.7,0-3,1.4-3,3.2s1.3,3.2,3,3.2C129.1,114.9,130.4,113.5,130.4,111.7z"/>
	<path d="M134.1,114.1v-4.6c0-0.9-0.1-1.7-0.1-2.1h1.5l0.1,1h0c0.5-0.8,1.6-1.2,2.5-1.2c2.1,0,3.5,1.4,3.5,3.2v3.7
		c0,0.8,0,1.6,0.1,2.1h-1.8c0-0.5,0.1-1.3,0.1-2.1v-3.2c0-1.6-1-2.3-2.1-2.3s-2.1,0.8-2.1,2.1v3.4c0,0.8,0,1.6,0.1,2.1H134
		C134,115.7,134.1,114.9,134.1,114.1z"/>
</g>
</svg>
