<?xml version="1.0" encoding="utf-8"?>
<!-- Generator: Adobe Illustrator 25.4.1, SVG Export Plug-In . SVG Version: 6.00 Build 0)  -->
<svg version="1.1" id="Calque_1" xmlns="http://www.w3.org/2000/svg" xmlns:xlink="http://www.w3.org/1999/xlink" x="0px" y="0px"
	 viewBox="0 0 171.7 41.6" style="enable-background:new 0 0 171.7 41.6;" xml:space="preserve">
<style type="text/css">
	.st0{enable-background:new    ;}
	.st1{fill:#F6003F;}
</style>
<g class="st0">
	<path class="st1" d="M6.9,34.1v-8.4H7c2.6,3.2,6.1,4.6,9.3,4.6c2.9,0,4.4-1.4,4.4-3.1c0-1.5-1.1-2.5-4.1-3.7l-3.9-1.5
		c-4-1.6-6.2-3.7-6.2-8c0-5.4,4.8-8.4,10.3-8.4c3.7,0,6.5,0.8,8.4,1.6v8.3h-0.1c-1.7-2.3-4.7-4.2-8.2-4.2c-2.4,0-4,1.1-4,2.5
		c0,1.5,0.9,2.1,3.9,3.3l3.9,1.6c4.8,1.9,6.3,4.5,6.3,8.4c0,5.6-4.5,9-11.1,9C12.6,36.1,9.4,35.4,6.9,34.1z"/>
	<path class="st1" d="M30.4,20.8c0-8.7,6.8-15.2,15.4-15.2c8.6,0,15.4,6.5,15.4,15.2c0,8.7-6.7,15.2-15.4,15.2
		C37.2,36.1,30.4,29.6,30.4,20.8z M54.8,20.8c0-5.4-4-9.6-9-9.6s-9,4.2-9,9.6s4,9.6,9,9.6S54.8,26.2,54.8,20.8z"/>
	<path class="st1" d="M65.9,29.5V12.2c0-2.5-0.1-5-0.2-6.2h6.7c-0.1,1.2-0.2,3.7-0.2,6.2V29c0,0.3,0,0.7,0,1h9.1
		c2.5,0,4.2-0.1,4.9-0.2L86,35.7H65.7C65.7,34.4,65.9,31.9,65.9,29.5z"/>
	<path class="st1" d="M92.9,35.7h-3.3c0.1-1.3,0.2-3.9,0.2-6.2V12.2c0-2.5-0.1-5-0.2-6.2h10.5c9.3,0,15.5,6.2,15.5,14.9
		c0,8.7-6.4,15.1-15.5,15.1C97.3,36,95,35.7,92.9,35.7z M109.2,21c0-5.3-3.6-9.3-9.7-9.3h-3.4c0,0.7,0,1,0,1.3v15.9
		c0,0.9,0,1.1,0.5,1.2c0.7,0.3,1.7,0.3,3.2,0.3C105.6,30.3,109.2,26.2,109.2,21z"/>
	<path class="st1" d="M120.3,29.5V12.2c0-2.5-0.1-5-0.2-6.2h20.1l0.2,5.9c-1.9-0.1-3.9-0.2-5.6-0.2h-8.1c0,0.3,0,0.6,0,0.8V18h6.2
		c1.9,0,3.9,0,5.7-0.2v6c-1.9-0.2-3.8-0.3-5.7-0.2h-6.2v5.5c0,0.3,0,0.6,0,0.9h8.2c1.9,0,3.8,0,5.7-0.2l-0.2,5.9h-20.3
		C120.2,34.4,120.3,31.9,120.3,29.5z"/>
	<path class="st1" d="M145.1,34.1v-8.4h0.1c2.6,3.2,6.1,4.6,9.3,4.6c2.9,0,4.4-1.4,4.4-3.1c0-1.5-1.1-2.5-4.1-3.7l-3.9-1.5
		c-4-1.6-6.2-3.7-6.2-8c0-5.4,4.8-8.4,10.3-8.4c3.7,0,6.5,0.8,8.4,1.6v8.3h-0.1c-1.7-2.3-4.7-4.2-8.2-4.2c-2.4,0-4,1.1-4,2.5
		c0,1.5,0.9,2.1,3.9,3.3l3.9,1.6c4.8,1.9,6.3,4.5,6.3,8.4c0,5.6-4.5,9-11.1,9C150.7,36.1,147.5,35.4,145.1,34.1z"/>
</g>
</svg>
